<svg width="150" height="150" viewBox="0 0 150 150" fill="none" xmlns="http://www.w3.org/2000/svg">
<path d="M25 116.667C25 100 58.3333 90.8333 75 90.8333C91.6667 90.8333 125 100 125 116.667V125H25V116.667ZM100 50C100 56.6304 97.3661 62.9893 92.6777 67.6777C87.9893 72.3661 81.6304 75 75 75C68.3696 75 62.0107 72.3661 57.3223 67.6777C52.6339 62.9893 50 56.6304 50 50C50 43.3696 52.6339 37.0107 57.3223 32.3223C62.0107 27.6339 68.3696 25 75 25C81.6304 25 87.9893 27.6339 92.6777 32.3223C97.3661 37.0107 100 43.3696 100 50ZM0 16.6667V133.333C0 137.754 1.75595 141.993 4.88155 145.118C8.00716 148.244 12.2464 150 16.6667 150H133.333C137.754 150 141.993 148.244 145.118 145.118C148.244 141.993 150 137.754 150 133.333V16.6667C150 12.2464 148.244 8.00716 145.118 4.88155C141.993 1.75595 137.754 0 133.333 0H16.6667C12.2464 0 8.00716 1.75595 4.88155 4.88155C1.75595 8.00716 0 12.2464 0 16.6667Z" fill="#252422"/>
</svg>
