<svg width="20" height="27" viewBox="0 0 20 27" fill="none" xmlns="http://www.w3.org/2000/svg">
<path d="M10 0.25C8.3424 0.25 6.75269 0.90848 5.58058 2.08058C4.40848 3.25269 3.75 4.8424 3.75 6.5V9H2.5C1.83696 9 1.20107 9.26339 0.732233 9.73223C0.263392 10.2011 0 10.837 0 11.5V24C0 24.663 0.263392 25.2989 0.732233 25.7678C1.20107 26.2366 1.83696 26.5 2.5 26.5H17.5C18.163 26.5 18.7989 26.2366 19.2678 25.7678C19.7366 25.2989 20 24.663 20 24V11.5C20 10.837 19.7366 10.2011 19.2678 9.73223C18.7989 9.26339 18.163 9 17.5 9H16.25V6.5C16.25 5.67924 16.0883 4.86651 15.7742 4.10823C15.4602 3.34994 14.9998 2.66095 14.4194 2.08058C13.8391 1.50022 13.1501 1.03984 12.3918 0.725753C11.6335 0.411661 10.8208 0.25 10 0.25ZM10 2.625C12.1375 2.625 13.875 4.3625 13.875 6.5V9H6.125V6.5C6.125 4.3625 7.8625 2.625 10 2.625ZM10.2375 12.125C11.4125 12.125 12.35 12.3875 13.025 12.9C13.7 13.425 14.0375 14.125 14.0375 15C14.0375 15.55 13.85 16.0375 13.4875 16.5C13.125 16.95 12.65 17.3 12.075 17.5625C11.75 17.75 11.5375 17.9375 11.425 18.15C11.3125 18.375 11.25 18.65 11.25 19H8.75C8.75 18.375 8.875 17.95 9.1125 17.65C9.375 17.35 9.8 17 10.45 16.6C10.775 16.425 11.0375 16.2 11.25 15.925C11.425 15.6625 11.525 15.35 11.525 15C11.525 14.625 11.4125 14.35 11.1875 14.1375C10.9625 13.9125 10.625 13.8125 10.2375 13.8125C9.9 13.8125 9.625 13.9 9.375 14.075C9.175 14.25 9.05 14.5125 9.05 14.8625H6.5875C6.525 14 6.875 13.25 7.5625 12.8C8.2375 12.35 9.125 12.125 10.2375 12.125ZM8.75 20.25H11.25V22.75H8.75V20.25Z" fill="#1985A1"/>
</svg>
