<svg width="38" height="38" viewBox="0 0 38 38" fill="none" xmlns="http://www.w3.org/2000/svg">
<path d="M23.3333 26.4792L28.7292 21.0833H8.58333V16.9167H28.7292L23.3333 11.5208L26.2917 8.58333L36.7083 19L26.2917 29.4167L23.3333 26.4792ZM33.5833 0.25C34.6884 0.25 35.7482 0.688987 36.5296 1.47039C37.311 2.25179 37.75 3.3116 37.75 4.41667V14.1458L33.5833 9.97917V4.41667H4.41667V33.5833H33.5833V28.0208L37.75 23.8542V33.5833C37.75 34.6884 37.311 35.7482 36.5296 36.5296C35.7482 37.311 34.6884 37.75 33.5833 37.75H4.41667C3.3116 37.75 2.25179 37.311 1.47039 36.5296C0.688987 35.7482 0.25 34.6884 0.25 33.5833V4.41667C0.25 2.10417 2.10417 0.25 4.41667 0.25H33.5833Z" fill="#FFFCF2"/>
</svg>
